HIERARCHY
ROOT hips
{
	OFFSET 0.000000 104.274902 0.000000
	CHANNELS 6 Xposition Yposition Zposition Xrotation Yrotation Zrotation
	JOINT spine
	{
		OFFSET 0.000000 10.181549 0.131524
		CHANNELS 6 Xposition Yposition Zposition Xrotation Yrotation Zrotation
		JOINT chest
		{
			OFFSET 0.000000 9.893990 -1.470706
			CHANNELS 3 Xrotation Yrotation Zrotation
			JOINT upperChest
			{
				OFFSET 0.000000 9.220787 -1.370637
				CHANNELS 3 Xrotation Yrotation Zrotation
				JOINT neck
				{
					OFFSET 0.000000 16.740372 -2.049022
					CHANNELS 6 Xposition Yposition Zposition Xrotation Yrotation Zrotation
					JOINT head
					{
						OFFSET 0.000000 9.617859 1.684976
						CHANNELS 6 Xposition Yposition Zposition Xrotation Yrotation Zrotation
						JOINT headEnd
						{
							OFFSET 0.000000 22.037384 7.501072
							CHANNELS 6 Xposition Yposition Zposition Xrotation Yrotation Zrotation
							End Site
							{
								OFFSET 0.000000 23.106567 -2.828246
							}
						}
					}
				}
				JOINT rightShoulder
				{
					OFFSET -4.570000 11.014877 -2.160840
					CHANNELS 6 Xposition Yposition Zposition Xrotation Yrotation Zrotation
					JOINT rightUpperArm
					{
						OFFSET -10.592867 -0.524796 -2.232105
						CHANNELS 3 Xrotation Yrotation Zrotation
						JOINT rightLowerArm
						{
							OFFSET -27.841497 0.000000 -0.000002
							CHANNELS 3 Xrotation Yrotation Zrotation
							JOINT rightHand
							{
								OFFSET -28.328812 0.000000 -0.000001
								CHANNELS 3 Xrotation Yrotation Zrotation
								JOINT rightThumbProximal
								{
									OFFSET -2.464798 -1.573990 2.681911
									CHANNELS 6 Xposition Yposition Zposition Xrotation Yrotation Zrotation
									JOINT rightThumbIntermediate
									{
										OFFSET -3.244781 -1.873383 1.873376
										CHANNELS 3 Xrotation Yrotation Zrotation
										JOINT rightThumbDistal
										{
											OFFSET -2.646263 -1.527817 1.527818
											CHANNELS 6 Xposition Yposition Zposition Xrotation Yrotation Zrotation
											JOINT rightHandThumb4
											{
												OFFSET -1.994591 -1.151581 1.151575
												CHANNELS 6 Xposition Yposition Zposition Xrotation Yrotation Zrotation
												End Site
												{
													OFFSET -1.860176 -1.142715 1.365483
												}
											}
										}
									}
								}
								JOINT rightIndexProximal
								{
									OFFSET -9.108299 -0.517883 2.259803
									CHANNELS 6 Xposition Yposition Zposition Xrotation Yrotation Zrotation
									JOINT rightIndexIntermediate
									{
										OFFSET -3.699997 0.000000 0.000000
										CHANNELS 3 Xrotation Yrotation Zrotation
										JOINT rightIndexDistal
										{
											OFFSET -2.850006 0.000000 0.000000
											CHANNELS 3 Xrotation Yrotation Zrotation
											JOINT rightHandIndex4
											{
												OFFSET -2.772194 0.000000 0.000000
												CHANNELS 3 Xrotation Yrotation Zrotation
												End Site
												{
													OFFSET -2.772202 0.000000 -0.000484
												}
											}
										}
									}
								}
								JOINT rightMiddleProximal
								{
									OFFSET -9.532501 0.000000 -0.000000
									CHANNELS 6 Xposition Yposition Zposition Xrotation Yrotation Zrotation
									JOINT rightMiddleIntermediate
									{
										OFFSET -3.699997 0.000000 0.000000
										CHANNELS 3 Xrotation Yrotation Zrotation
										JOINT rightMiddleDistal
										{
											OFFSET -2.949997 0.000000 0.000000
											CHANNELS 3 Xrotation Yrotation Zrotation
											JOINT rightHandMiddle4
											{
												OFFSET -2.946594 0.000000 0.000000
												CHANNELS 3 Xrotation Yrotation Zrotation
												End Site
												{
													OFFSET -2.946602 0.000000 -0.000982
												}
											}
										}
									}
								}
								JOINT rightRingProximal
								{
									OFFSET -9.103600 -0.043106 -1.865100
									CHANNELS 6 Xposition Yposition Zposition Xrotation Yrotation Zrotation
									JOINT rightRingIntermediate
									{
										OFFSET -3.379303 0.000000 0.000000
										CHANNELS 3 Xrotation Yrotation Zrotation
										JOINT rightRingDistal
										{
											OFFSET -2.889694 0.000000 0.000000
											CHANNELS 3 Xrotation Yrotation Zrotation
											JOINT rightHandRing4
											{
												OFFSET -2.638802 0.000000 0.000000
												CHANNELS 3 Xrotation Yrotation Zrotation
												End Site
												{
													OFFSET -2.638802 0.000000 0.004218
												}
											}
										}
									}
								}
								JOINT rightLittleProximal
								{
									OFFSET -8.076698 -0.486725 -3.806299
									CHANNELS 6 Xposition Yposition Zposition Xrotation Yrotation Zrotation
									JOINT rightLittleIntermediate
									{
										OFFSET -3.600006 0.000000 0.000000
										CHANNELS 3 Xrotation Yrotation Zrotation
										JOINT rightLittleDistal
										{
											OFFSET -2.099998 0.000000 0.000000
											CHANNELS 3 Xrotation Yrotation Zrotation
											JOINT rightHandPinky4
											{
												OFFSET -2.115791 0.000000 0.000000
												CHANNELS 3 Xrotation Yrotation Zrotation
												End Site
												{
													OFFSET -2.115799 0.000000 0.000174
												}
											}
										}
									}
								}
							}
						}
					}
				}
				JOINT leftShoulder
				{
					OFFSET 4.570400 11.014679 -2.160816
					CHANNELS 6 Xposition Yposition Zposition Xrotation Yrotation Zrotation
					JOINT leftUpperArm
					{
						OFFSET 10.592373 -0.524597 -2.232116
						CHANNELS 3 Xrotation Yrotation Zrotation
						JOINT leftLowerArm
						{
							OFFSET 27.841488 0.000000 0.000001
							CHANNELS 3 Xrotation Yrotation Zrotation
							JOINT leftHand
							{
								OFFSET 28.328808 0.000000 -0.000000
								CHANNELS 3 Xrotation Yrotation Zrotation
								JOINT leftThumbProximal
								{
									OFFSET 2.466103 -1.576202 2.681698
									CHANNELS 6 Xposition Yposition Zposition Xrotation Yrotation Zrotation
									JOINT leftThumbIntermediate
									{
										OFFSET 3.243317 -1.872528 1.872530
										CHANNELS 3 Xrotation Yrotation Zrotation
										JOINT leftThumbDistal
										{
											OFFSET 2.647881 -1.528763 1.528754
											CHANNELS 6 Xposition Yposition Zposition Xrotation Yrotation Zrotation
											JOINT leftHandThumb4
											{
												OFFSET 1.998924 -1.154083 1.154080
												CHANNELS 6 Xposition Yposition Zposition Xrotation Yrotation Zrotation
												End Site
												{
													OFFSET 1.884041 -1.149155 1.337651
												}
											}
										}
									}
								}
								JOINT leftIndexProximal
								{
									OFFSET 9.109299 -0.518005 2.259900
									CHANNELS 6 Xposition Yposition Zposition Xrotation Yrotation Zrotation
									JOINT leftIndexIntermediate
									{
										OFFSET 3.699997 0.000000 0.000000
										CHANNELS 3 Xrotation Yrotation Zrotation
										JOINT leftIndexDistal
										{
											OFFSET 2.850006 0.000000 0.000000
											CHANNELS 3 Xrotation Yrotation Zrotation
											JOINT leftHandIndex4
											{
												OFFSET 2.774895 0.000000 0.000000
												CHANNELS 3 Xrotation Yrotation Zrotation
												End Site
												{
													OFFSET 2.774902 0.000000 -0.000072
												}
											}
										}
									}
								}
								JOINT leftMiddleProximal
								{
									OFFSET 9.533401 0.000000 0.000000
									CHANNELS 6 Xposition Yposition Zposition Xrotation Yrotation Zrotation
									JOINT leftMiddleIntermediate
									{
										OFFSET 3.699997 0.000000 0.000000
										CHANNELS 3 Xrotation Yrotation Zrotation
										JOINT leftMiddleDistal
										{
											OFFSET 2.949997 0.000000 0.000000
											CHANNELS 3 Xrotation Yrotation Zrotation
											JOINT leftHandMiddle4
											{
												OFFSET 2.952896 0.000000 0.000000
												CHANNELS 3 Xrotation Yrotation Zrotation
												End Site
												{
													OFFSET 2.952904 0.000000 0.000165
												}
											}
										}
									}
								}
								JOINT leftRingProximal
								{
									OFFSET 9.104500 -0.042999 -1.865101
									CHANNELS 6 Xposition Yposition Zposition Xrotation Yrotation Zrotation
									JOINT leftRingIntermediate
									{
										OFFSET 3.149994 0.000000 0.000000
										CHANNELS 3 Xrotation Yrotation Zrotation
										JOINT leftRingDistal
										{
											OFFSET 2.950005 0.000000 0.000000
											CHANNELS 3 Xrotation Yrotation Zrotation
											JOINT leftHandRing4
											{
												OFFSET 2.644302 0.000000 0.000000
												CHANNELS 3 Xrotation Yrotation Zrotation
												End Site
												{
													OFFSET 2.644302 0.000000 0.000083
												}
											}
										}
									}
								}
								JOINT leftLittleProximal
								{
									OFFSET 8.077805 -0.486893 -3.806302
									CHANNELS 6 Xposition Yposition Zposition Xrotation Yrotation Zrotation
									JOINT leftLittleIntermediate
									{
										OFFSET 3.600006 0.000000 0.000000
										CHANNELS 3 Xrotation Yrotation Zrotation
										JOINT leftLittleDistal
										{
											OFFSET 2.099998 0.000000 0.000000
											CHANNELS 3 Xrotation Yrotation Zrotation
											JOINT leftHandPinky4
											{
												OFFSET 2.125496 0.000000 0.000000
												CHANNELS 3 Xrotation Yrotation Zrotation
												End Site
												{
													OFFSET 2.125504 0.000000 -0.001254
												}
											}
										}
									}
								}
							}
						}
					}
				}
			}
		}
	}
	JOINT rightUpperLeg
	{
		OFFSET -8.207800 -6.751701 -1.599544
		CHANNELS 6 Xposition Yposition Zposition Xrotation Yrotation Zrotation
		JOINT rightLowerLeg
		{
			OFFSET 0.000004 -44.370152 0.345934
			CHANNELS 3 Xrotation Yrotation Zrotation
			JOINT rightFoot
			{
				OFFSET 0.000004 -44.423664 -3.043535
				CHANNELS 3 Xrotation Yrotation Zrotation
				JOINT rightToes
				{
					OFFSET 0.000001 -8.728691 10.710592
					CHANNELS 3 Xrotation Yrotation Zrotation
					JOINT rightToesEnd
					{
						OFFSET 0.000000 -0.000665 9.278101
						CHANNELS 3 Xrotation Yrotation Zrotation
						End Site
						{
							OFFSET 0.000000 -0.000665 9.278103
						}
					}
				}
			}
		}
	}
	JOINT leftUpperLeg
	{
		OFFSET 8.207800 -6.751701 -1.599544
		CHANNELS 6 Xposition Yposition Zposition Xrotation Yrotation Zrotation
		JOINT leftLowerLeg
		{
			OFFSET 0.000004 -44.370037 0.346940
			CHANNELS 3 Xrotation Yrotation Zrotation
			JOINT leftFoot
			{
				OFFSET 0.000004 -44.423611 -3.044388
				CHANNELS 3 Xrotation Yrotation Zrotation
				JOINT leftToes
				{
					OFFSET 0.000001 -8.728690 10.710592
					CHANNELS 3 Xrotation Yrotation Zrotation
					JOINT leftToesEnd
					{
						OFFSET 0.000000 -0.000680 9.278101
						CHANNELS 3 Xrotation Yrotation Zrotation
						End Site
						{
							OFFSET 0.000000 -0.000680 9.278101
						}
					}
				}
			}
		}
	}
}
MOTION
Frames: 4
Frame Time: 0.033333
-21.530437 91.757782 2.197182 39.680315 7.948921 2.757881 -0.000001 10.181556 0.131525 3.363379 1.397962 -0.339233 4.485261 6.769655 2.715375 4.477507 6.681522 2.998831 -0.000003 16.740376 -2.049019 4.023773 5.201671 3.882202 -0.000009 9.617844 1.684955 20.898185 31.871042 -10.634348 -0.000007 22.037354 7.501087 0.000001 0.000001 -0.000001 -4.570001 11.014883 -2.160841 -2.673267 -10.390097 -13.220260 -83.669585 43.706695 24.710009 -0.000044 51.580124 0.000073 4.204212 19.374236 -22.203664 -2.464798 -1.573997 2.681904 -1.849249 -3.581795 -6.586141 4.645037 -8.656818 -0.231311 -2.646267 -1.527833 1.527807 -1.269828 0.126056 -2.098674 -1.994596 -1.151581 1.151577 0.000001 -0.000006 0.000005 -9.108285 -0.517877 2.259802 0.000012 -0.000008 -0.000024 0.000000 -0.000003 0.000055 -0.000009 -0.000006 0.000025 -0.000000 -0.000002 0.000002 -9.532502 -0.000008 -0.000002 0.000012 -0.000007 -0.000024 -0.000007 -0.000001 0.000046 0.000002 -0.000006 0.000013 -0.000000 -0.000003 0.000001 -9.103592 -0.043129 -1.865104 0.000012 -0.000008 -0.000024 -0.000007 -0.000004 0.000045 0.000002 -0.000003 0.000014 -0.000002 0.000003 0.000004 -8.076705 -0.486726 -3.806303 0.000012 -0.000017 -0.000020 -0.000010 -0.000002 0.000120 0.000010 -0.000002 0.000009 -0.000001 -0.000001 0.000002 4.570395 11.014699 -2.160820 1.058379 -3.594923 11.288915 42.176780 38.592297 -74.053867 0.000000 -0.000000 -0.000002 -27.774855 -12.200540 -28.218317 2.466092 -1.576192 2.681699 -1.539957 3.690286 6.142354 3.946753 7.971378 0.752836 2.647888 -1.528751 1.528754 -0.575602 1.586263 2.542394 1.998924 -1.154060 1.154075 0.000001 -0.000003 0.000003 9.109298 -0.517991 2.259901 0.000000 0.000000 0.000000 -0.000002 0.000000 0.000000 0.000000 -0.000002 -0.000000 0.000001 -0.000001 -0.000000 9.533397 0.000024 0.000000 -0.000004 -0.001927 0.015976 0.000000 0.001924 -0.015967 0.000005 0.000001 -0.000007 -0.000000 -0.000001 0.000000 9.104499 -0.042985 -1.865102 0.000000 0.000000 0.000000 -0.000002 0.000000 -0.000000 0.000000 0.000000 -0.000001 -0.000000 -0.000001 -0.000001 8.077802 -0.486898 -3.806303 -0.018088 4.054257 0.511073 -0.018091 -4.054262 -0.511073 -0.000001 0.000002 -0.000010 0.000000 -0.000001 -0.000001 -8.207802 -6.751705 -1.599537 -61.114743 8.204923 -29.889174 40.285620 0.726557 -0.005051 -13.266680 -1.729756 18.328416 -1.807119 0.000000 0.000003 -0.000000 0.000000 -0.000000 8.207800 -6.751696 -1.599545 -65.279984 -4.932119 14.606925 31.050805 -5.346741 -0.145828 -1.025667 2.420981 -24.695476 -2.896751 -0.000001 0.000004 0.000000 0.000000 0.000000 
-19.453032 87.346504 -0.589622 38.814080 8.058036 3.257491 -0.000000 10.181563 0.131522 4.761959 0.551132 -0.746059 6.515432 6.309536 2.708846 6.521166 6.173332 3.021978 -0.000000 16.740368 -2.049009 1.657197 4.638740 4.057234 -0.000002 9.617857 1.684970 17.939885 29.527608 -11.516574 0.000009 22.037369 7.501074 -0.000001 -0.000001 0.000000 -4.569999 11.014861 -2.160832 -2.310351 -10.342700 -10.341932 -86.265494 31.687915 31.568561 -0.000036 52.455142 0.000079 12.291741 16.699085 -41.198547 -2.464800 -1.574002 2.681902 -1.849242 -3.581795 -6.586146 4.645035 -8.656819 -0.231315 -2.646282 -1.527840 1.527824 -1.269827 0.126054 -2.098674 -1.994594 -1.151586 1.151581 0.000001 -0.000005 0.000001 -9.108310 -0.517876 2.259800 0.000015 -0.000008 -0.000023 0.000002 -0.000002 0.000052 -0.000007 -0.000006 0.000027 0.000001 0.000000 0.000000 -9.532503 0.000003 -0.000004 0.000015 -0.000008 -0.000023 -0.000007 -0.000002 0.000042 0.000002 -0.000002 0.000014 0.000001 -0.000001 0.000002 -9.103609 -0.043098 -1.865105 0.000015 -0.000009 -0.000023 -0.000002 -0.000003 0.000044 0.000004 -0.000004 0.000017 0.000002 -0.000001 0.000000 -8.076707 -0.486731 -3.806304 0.000015 -0.000019 -0.000020 -0.000009 -0.000001 0.000117 0.000005 0.000001 0.000011 0.000004 0.000002 0.000001 4.570402 11.014668 -2.160813 1.256430 -4.238418 10.911022 42.810260 32.102644 -76.029254 0.000002 -0.001442 0.000002 -28.387979 -11.920982 -30.082667 2.466100 -1.576179 2.681700 -1.539956 3.690282 6.142350 3.946751 7.971380 0.752830 2.647887 -1.528752 1.528750 -0.575602 1.586257 2.542392 1.998908 -1.154094 1.154076 0.000000 -0.000001 0.000003 9.109292 -0.517990 2.259902 -0.000001 -0.000001 -0.000000 -0.000002 -0.000001 -0.000000 -0.000001 -0.000001 -0.000000 0.000001 -0.000001 -0.000000 9.533399 0.000011 0.000000 -0.000004 -0.001926 0.015975 -0.000000 0.001924 -0.015969 0.000005 0.000001 -0.000007 0.000001 -0.000000 -0.000000 9.104493 -0.042999 -1.865097 -0.000001 -0.000001 -0.000000 -0.000002 -0.000001 -0.000000 0.000000 -0.000001 -0.000000 0.000001 -0.000001 -0.000001 8.077804 -0.486896 -3.806296 -0.018089 4.054256 0.511073 -0.018090 -4.054262 -0.511073 -0.000001 0.000001 -0.000011 0.000000 -0.000000 -0.000001 -8.207799 -6.751699 -1.599546 -65.735796 12.798960 -31.122054 49.822501 -0.108949 -0.098874 -16.936417 -2.761280 20.114130 -0.926431 -0.000003 -0.000002 -0.000000 -0.000000 0.000000 8.207801 -6.751693 -1.599545 -72.756275 -7.662691 12.180865 44.565967 -3.694867 0.177193 -9.543096 3.389848 -21.905902 0.098352 -0.000003 0.000002 0.000000 0.000000 0.000000 
-17.332281 82.805054 -3.467316 37.926302 8.064269 3.739689 -0.000002 10.181554 0.131526 6.155148 -0.296547 -1.164716 8.555937 5.789623 2.653074 8.576597 5.607544 2.985116 0.000001 16.740370 -2.049023 -0.663634 4.080819 4.261560 -0.000004 9.617865 1.684968 14.935592 27.221990 -12.308461 -0.000012 22.037399 7.501061 0.000002 -0.000001 0.000000 -4.570002 11.014866 -2.160836 -1.935813 -10.228749 -7.352545 -88.633118 19.855126 37.574524 -0.000047 53.375657 0.000089 18.437546 11.352821 -58.283985 -2.464792 -1.573998 2.681909 -1.849250 -3.581795 -6.586143 4.645037 -8.656819 -0.231320 -2.646269 -1.527790 1.527817 -1.269829 0.126059 -2.098673 -1.994595 -1.151585 1.151580 0.000001 -0.000002 0.000005 -9.108295 -0.517879 2.259798 0.000010 -0.000007 -0.000026 -0.000002 0.000003 0.000050 -0.000007 -0.000004 0.000024 -0.000001 -0.000001 -0.000001 -9.532496 -0.000008 -0.000003 0.000010 -0.000006 -0.000026 -0.000006 0.000000 0.000039 0.000003 -0.000007 0.000013 0.000000 -0.000000 -0.000000 -9.103587 -0.043117 -1.865111 0.000010 -0.000007 -0.000026 -0.000005 -0.000001 0.000040 0.000003 -0.000004 0.000011 -0.000002 0.000000 0.000001 -8.076686 -0.486737 -3.806307 0.000010 -0.000017 -0.000022 -0.000011 0.000001 0.000118 0.000005 0.000001 0.000008 0.000000 -0.000003 -0.000003 4.570400 11.014691 -2.160814 1.437174 -4.858685 10.427699 40.640196 25.246357 -76.697403 -0.000016 -0.008424 -0.000015 -29.036179 -11.624605 -31.972501 2.466103 -1.576219 2.681695 -1.539957 3.690285 6.142355 3.946755 7.971385 0.752834 2.647891 -1.528744 1.528759 -0.575602 1.586259 2.542390 1.998912 -1.154105 1.154074 -0.000003 -0.000003 0.000002 9.109306 -0.518035 2.259895 -0.000000 -0.000002 0.000000 -0.000002 -0.000002 0.000000 -0.000000 -0.000001 -0.000000 0.000000 -0.000001 -0.000000 9.533403 -0.000004 -0.000004 -0.000003 -0.001926 0.015976 0.000001 0.001923 -0.015969 0.000003 0.000001 -0.000008 -0.000001 -0.000000 0.000000 9.104507 -0.043029 -1.865102 -0.000000 -0.000002 0.000000 -0.000002 -0.000000 0.000000 -0.000000 -0.000000 0.000000 -0.000002 0.000001 0.000000 8.077809 -0.486911 -3.806304 -0.018088 4.054256 0.511073 -0.018090 -4.054262 -0.511074 0.000001 0.000000 -0.000012 0.000001 -0.000000 -0.000001 -8.207802 -6.751699 -1.599543 -69.947619 17.381419 -32.373461 57.732119 -0.065804 -0.139244 -17.799905 -3.474448 22.632248 -0.690746 0.000000 0.000000 0.000000 0.000000 -0.000000 8.207799 -6.751693 -1.599550 -79.727248 -10.158208 10.018500 55.836779 -3.178147 0.138993 -14.374710 3.708112 -21.738971 1.363471 0.000000 -0.000005 -0.000000 0.000000 0.000000 
-15.354465 78.576263 -6.142906 36.951289 7.673511 4.184869 0.000002 10.181558 0.131524 7.541109 -1.241043 -1.671857 10.707990 4.818941 2.379706 10.741040 4.587566 2.685606 0.000004 16.740355 -2.049038 -2.622098 3.436890 4.410958 0.000001 9.617842 1.684973 11.687796 24.387865 -12.241267 -0.000009 22.037369 7.501081 0.000001 -0.000000 0.000000 -4.569999 11.014880 -2.160856 -1.434815 -9.687863 -3.992785 -90.082149 10.563197 43.642464 -0.000032 54.324576 0.000062 20.765297 5.188544 -70.729396 -2.464798 -1.574009 2.681916 -1.849249 -3.581795 -6.586141 4.645041 -8.656817 -0.231316 -2.646269 -1.527822 1.527823 -1.269829 0.126056 -2.098680 -1.994587 -1.151583 1.151588 -0.000000 -0.000003 0.000001 -9.108303 -0.517877 2.259814 0.000012 -0.000007 -0.000023 -0.000001 0.000004 0.000051 -0.000009 -0.000005 0.000024 -0.000002 -0.000001 -0.000000 -9.532496 -0.000011 0.000003 0.000012 -0.000009 -0.000023 -0.000007 -0.000002 0.000042 0.000001 -0.000005 0.000012 -0.000002 -0.000000 0.000003 -9.103602 -0.043129 -1.865095 0.000012 -0.000008 -0.000023 -0.000006 0.000003 0.000042 0.000003 -0.000007 0.000014 0.000001 0.000002 -0.000001 -8.076702 -0.486751 -3.806297 0.000013 -0.000019 -0.000021 -0.000009 -0.000002 0.000117 0.000004 0.000001 0.000010 -0.000000 0.000002 0.000000 4.570395 11.014679 -2.160826 1.590856 -5.359309 9.176682 35.408578 18.498732 -77.165387 0.000001 -0.013511 0.000008 -29.649042 -11.059591 -33.958884 2.466103 -1.576213 2.681706 -1.539955 3.690281 6.142353 3.946751 7.971381 0.752830 2.647888 -1.528752 1.528755 -0.575606 1.586259 2.542388 1.998921 -1.154089 1.154063 0.000002 0.000004 0.000001 9.109301 -0.518020 2.259905 -0.000000 -0.000001 -0.000001 -0.000000 -0.000001 -0.000002 -0.000000 -0.000001 -0.000001 -0.000003 -0.000000 -0.000000 9.533408 0.000011 0.000008 -0.000002 -0.001924 0.015974 0.000000 0.001922 -0.015969 0.000006 -0.000000 -0.000007 -0.000001 -0.000001 -0.000000 9.104502 -0.042999 -1.865096 -0.000000 -0.000001 -0.000001 -0.000000 -0.000001 -0.000002 -0.000000 -0.000000 -0.000001 0.000001 -0.000001 -0.000002 8.077809 -0.486911 -3.806293 -0.018086 4.054257 0.511073 -0.018088 -4.054262 -0.511074 0.000002 0.000001 -0.000012 -0.000001 -0.000002 0.000000 -8.207795 -6.751698 -1.599531 -73.505328 21.625123 -33.108164 63.861558 0.167749 -0.137408 -17.423283 -3.727583 24.140083 -0.654551 0.000003 0.000006 -0.000000 0.000000 -0.000001 8.207802 -6.751699 -1.599546 -85.715541 -12.483634 8.508787 64.942115 -3.602255 -0.148764 -16.519050 3.773621 -23.926182 1.345285 0.000001 -0.000001 0.000000 0.000000 0.000000 
